<svg xmlns="http://www.w3.org/2000/svg" width="108.975" height="68.121" viewBox="0 0 108.975 68.121">
  <g id="behance" transform="translate(0 -4.5)">
    <path id="Path_1" data-name="Path 1" d="M56.145,51.944c0-8.393-3.992-14.6-12.239-16.921,6.017-2.866,9.155-7.207,9.155-13.96C53.062,7.747,43.107,4.5,31.622,4.5H0V71.354H32.507c12.189,0,23.638-5.827,23.638-19.41Zm-41.4-36.031H28.574c5.318,0,10.1,1.49,10.1,7.639,0,5.677-3.724,7.961-8.992,7.961H14.741Zm0,44.088V41.59H30.8c6.49,0,10.6,2.7,10.6,9.546C41.4,57.889,36.5,60,30.5,60Z" fill="#fff"/>
    <path id="Path_2" data-name="Path 2" d="M38.175,59.3c11.6,0,19.11-5.209,22.725-16.281H49.128c-1.267,4.133-6.49,6.317-10.541,6.317-7.816,0-11.921-4.564-11.921-12.321H61.694C62.8,21.491,54.156,8.262,38.17,8.262c-14.8,0-24.846,11.09-24.846,25.618C13.324,48.957,22.843,59.3,38.175,59.3Zm-.418-40.991c6.7,0,10.068,3.924,10.631,10.341h-21.7c.441-6.363,4.678-10.341,11.072-10.341Z" transform="translate(47.186 13.323)" fill="#fff"/>
    <path id="Path_3" data-name="Path 3" d="M15.667,5.273H42.861v6.585H15.667Z" transform="translate(55.483 2.738)" fill="#fff"/>
  </g>
</svg>
