<svg xmlns="http://www.w3.org/2000/svg" width="276.547" height="276.546" viewBox="0 0 276.547 276.546">
  <path id="dribbble" d="M276.025,150.27c.34-3.969.521-7.967.521-11.995A138.274,138.274,0,0,0,40.5,40.5,138.274,138.274,0,0,0,236.047,236.048a137.239,137.239,0,0,0,39.9-84.891,7.85,7.85,0,0,0,.074-.886Zm-15.7-11.087a189.229,189.229,0,0,0-86.068-3.859q-2.674-6.232-5.5-12.4-3.814-8.3-7.918-16.453a333.386,333.386,0,0,0,73.36-43.6,121.466,121.466,0,0,1,26.141,75.409c0,.3-.011.6-.013.907ZM223.32,50.8a317.705,317.705,0,0,1-70.042,41.166,533.616,533.616,0,0,0-46.546-71.62A121.934,121.934,0,0,1,223.32,50.8ZM90.553,25.922A515.659,515.659,0,0,1,138.072,98,319.047,319.047,0,0,1,28.052,117.63c-3.355,0-6.718-.057-10.068-.16A122.473,122.473,0,0,1,90.553,25.922ZM16.2,138.276c0-1.559.038-3.108.1-4.652,3.907.135,7.836.211,11.75.211a333.857,333.857,0,0,0,114.794-20.2c.96-.35,1.918-.709,2.874-1.068q6.6,13.08,12.446,26.509A188.5,188.5,0,0,0,48.826,221.247,121.6,121.6,0,0,1,16.2,138.276Zm44.681,94.331a172.307,172.307,0,0,1,103.568-78.445,512.3,512.3,0,0,1,27.361,93.795A121.858,121.858,0,0,1,60.884,232.607Zm145.757,6.745a529.1,529.1,0,0,0-26.087-88.683,172.892,172.892,0,0,1,78.538,5.034,122.236,122.236,0,0,1-52.452,83.648Zm0,0" transform="translate(0.001 0)" fill="#fff"/>
</svg>
