<svg xmlns="http://www.w3.org/2000/svg" viewBox="0 0 19 18.97"><title>Asset 1</title><g id="Layer_2" data-name="Layer 2"><g id="Layer_1-2" data-name="Layer 1"><g id="Layer_1-2-2" data-name="Layer 1-2"><path d="M9.5,0c2.58,0,2.9,0,3.92.06a6.66,6.66,0,0,1,2.3.44,4.6,4.6,0,0,1,1.69,1.09A4.78,4.78,0,0,1,18.5,3.27a6.66,6.66,0,0,1,.44,2.3c0,1,.06,1.34.06,3.91s0,2.9-.06,3.91a6.66,6.66,0,0,1-.44,2.3,4.82,4.82,0,0,1-2.78,2.78,7.22,7.22,0,0,1-2.3.44c-1,0-1.34.06-3.92.06s-2.9,0-3.92-.06a7.22,7.22,0,0,1-2.3-.44,4.62,4.62,0,0,1-1.69-1.1A4.69,4.69,0,0,1,.5,15.69a6.66,6.66,0,0,1-.44-2.3c0-1-.06-1.33-.06-3.91s0-2.9.06-3.91A6.66,6.66,0,0,1,.5,3.27,4.78,4.78,0,0,1,1.59,1.59,4.6,4.6,0,0,1,3.28.5,6.66,6.66,0,0,1,5.58.06C6.6,0,6.92,0,9.5,0Zm0,1.71c-2.54,0-2.84,0-3.84.05a5.28,5.28,0,0,0-1.76.33,3.06,3.06,0,0,0-1.1.71,3.16,3.16,0,0,0-.71,1.09,5,5,0,0,0-.32,1.76c-.05,1-.06,1.3-.06,3.83s0,2.83.06,3.83a5,5,0,0,0,.32,1.76,3.2,3.2,0,0,0,.71,1.1,3,3,0,0,0,1.1.7,5.28,5.28,0,0,0,1.76.33c1,.05,1.3.06,3.84.06s2.84,0,3.84-.06a5.28,5.28,0,0,0,1.76-.33,3,3,0,0,0,1.1-.7,3.2,3.2,0,0,0,.71-1.1,5,5,0,0,0,.32-1.76c.05-1,.06-1.3.06-3.83s0-2.83-.06-3.83a5,5,0,0,0-.32-1.76A3.16,3.16,0,0,0,16.2,2.8a3.06,3.06,0,0,0-1.1-.71,5.28,5.28,0,0,0-1.76-.33C12.34,1.72,12,1.71,9.5,1.71Zm0,2.9A4.87,4.87,0,1,1,4.62,9.48,4.87,4.87,0,0,1,9.5,4.61Zm0,8A3.16,3.16,0,1,0,6.33,9.46v0a3.15,3.15,0,0,0,3.16,3.16h0Zm6.21-8.22a1.14,1.14,0,1,1-1.14-1.14,1.14,1.14,0,0,1,1.14,1.14v0Z" fill="#fff"/></g></g></g></svg>