<svg id="linkedin" xmlns="http://www.w3.org/2000/svg" width="67.837" height="67.837" viewBox="0 0 67.837 67.837">
  <path id="Path_1" data-name="Path 1" d="M52.315,54v0h.017V29.121c0-12.171-2.62-21.547-16.849-21.547-6.84,0-11.431,3.754-13.3,7.312h-.2V8.71H8.489V54H22.537V31.574c0-5.9,1.119-11.614,8.432-11.614,7.2,0,7.312,6.738,7.312,11.993V54Z" transform="translate(15.506 13.834)" fill="#fff"/>
  <path id="Path_2" data-name="Path 2" d="M.4,7.977H14.461v45.29H.4Z" transform="translate(0.723 14.57)" fill="#fff"/>
  <path id="Path_3" data-name="Path 3" d="M8.146,0a8.184,8.184,0,1,0,8.146,8.146A8.149,8.149,0,0,0,8.146,0Z" fill="#fff"/>
</svg>
