<svg xmlns="http://www.w3.org/2000/svg" width="306.574" height="249.091" viewBox="0 0 306.574 249.091">
  <path id="twitter" d="M306.574,77.489a131.039,131.039,0,0,1-36.214,9.925,62.5,62.5,0,0,0,27.649-34.739,125.6,125.6,0,0,1-39.855,15.214,62.846,62.846,0,0,0-108.719,42.978,64.716,64.716,0,0,0,1.456,14.332A177.9,177.9,0,0,1,21.345,59.458a62.867,62.867,0,0,0,19.314,84,62.069,62.069,0,0,1-28.4-7.741v.69a63.139,63.139,0,0,0,50.355,61.756,62.73,62.73,0,0,1-16.478,2.069,55.571,55.571,0,0,1-11.9-1.073,63.449,63.449,0,0,0,58.728,43.783,126.286,126.286,0,0,1-77.927,26.806A117.717,117.717,0,0,1,0,268.887a176.941,176.941,0,0,0,96.418,28.2c115.655,0,178.886-95.8,178.886-178.848,0-2.778-.1-5.461-.23-8.124A125.383,125.383,0,0,0,306.574,77.489Z" transform="translate(0 -48)" fill="#fff"/>
</svg>
